<svg width="230" height="230" viewBox="0 0 230 230" fill="none" xmlns="http://www.w3.org/2000/svg">
<path d="M0 7.99999C0 3.58171 3.58172 0 8 0H221.766C226.184 0 229.766 3.58172 229.766 8V221.766C229.766 226.184 226.184 229.766 221.766 229.766H7.99999C3.58171 229.766 0 226.184 0 221.766V7.99999Z" fill="#F5F5F5"/>
<path d="M114.854 54.7929V85.7063C114.854 101.609 101.964 114.498 86.0609 114.498H55.1474C39.2446 114.498 26.3555 127.392 26.3555 143.295V174.205C26.3555 190.107 39.2446 203 55.1474 203H174.559C190.463 203 203.355 190.107 203.355 174.205V50.4753C203.355 36.9559 192.396 26 178.88 26H143.65C127.746 26 114.854 38.8901 114.854 54.7929Z" fill="#363636"/>
<path d="M146.356 136.085L128.17 137.372C125.931 137.531 124.086 139.18 123.676 141.385L118.477 169.338C118.319 170.188 119.351 170.734 119.964 170.121L128.305 161.78C127.33 159.161 128.292 156.008 131.123 154.478C132.84 153.553 135.001 153.597 136.684 154.58C140.203 156.625 140.646 161.217 137.981 163.882C136.294 165.569 133.839 166.019 131.75 165.227L123.409 173.568C122.796 174.181 123.341 175.214 124.191 175.055L152.157 169.867C154.362 169.457 156.011 167.611 156.17 165.372L157.457 147.187L157.366 146.347L173.544 135.296C175.467 133.982 175.725 131.242 174.075 129.593L163.943 119.46C162.293 117.811 159.553 118.069 158.24 119.995L147.186 136.173L146.356 136.085Z" fill="white"/>
</svg>
