<svg width="230" height="230" viewBox="0 0 230 230" fill="none" xmlns="http://www.w3.org/2000/svg">
<path d="M0 7.99999C0 3.58171 3.58172 0 8 0H221.766C226.184 0 229.766 3.58172 229.766 8V221.766C229.766 226.184 226.184 229.766 221.766 229.766H7.99999C3.58171 229.766 0 226.184 0 221.766V7.99999Z" fill="#363636"/>
<path d="M114.856 54.796V85.7044C114.856 101.61 101.965 114.501 86.0639 114.501H55.1516C39.2505 114.501 26.3555 127.39 26.3555 143.296V174.204C26.3555 190.109 39.2505 203 55.1516 203H174.563C190.464 203 203.355 190.109 203.355 174.204V50.4774C203.355 36.9576 192.398 26 178.883 26H143.651C127.75 26 114.856 38.891 114.856 54.796Z" fill="white"/>
</svg>
